<?xml version="1.0" standalone="yes"?>

<svg version="1.1" viewBox="0.0 0.0 960.0 720.0" fill="none" stroke="none" stroke-linecap="square" stroke-miterlimit="10" xmlns="http://www.w3.org/2000/svg" xmlns:xlink="http://www.w3.org/1999/xlink">
<path d="M32.0 32.0L32.0 312.0L111.9994 312.0L111.9994 208.001L95.999 208.001L95.999 191.999L191.9988 191.999L191.9988 208.001L127.9998 208.001L127.9998 312.0L272.0008 312.0L272.0008 256.0L288.0012 256.0L288.0012 312.0L344.0 312.0L344.0 32.0L207.9992 32.0L207.9992 96.001L288.0012 96.001L288.0012 208.001L272.0008 208.001L272.0008 112.00066L191.9988 112.00066L191.9988 32.0Z" fill-rule="nonzero" stroke="#000000" stroke-width="2.0" stroke-linejoin="round" stroke-linecap="butt"></path>
<path d="M48.0 48.0L48.0 296.0L95.999 296.0L95.999 223.9994L88.000336 223.9994L79.99934 215.99933L79.99934 183.99907L88.000336 175.999L200.00034 175.999L207.999 183.99907L207.999 215.99933L200.00034 223.9994L144.00034 223.9994L144.00034 296.0L256.00034 296.0L256.00034 247.9996L263.999 239.99953L296.00067 239.99953L303.99933 247.9996L303.99933 296.0L328.0 296.0L328.0 48.0L224.001 48.0L224.001 80.00027L296.00067 80.00027L303.99933 88.000336L303.99933 215.99933L296.00067 223.9994L263.999 223.9994L256.00034 215.99933L256.00034 128.00067L184.00067 128.00067L175.99966 120.0006L175.99966 48.0Z" fill-rule="nonzero" stroke="#0000ff" stroke-width="2.0" stroke-linejoin="round" stroke-linecap="butt"></path>
<path d="M72.0 272.0L232.45996 73.3353" fill-rule="evenodd" stroke="#ff0000" stroke-width="2.0" stroke-linejoin="round" stroke-linecap="butt"></path>
<path d="M235.02986 75.41098L238.16287 66.27455L229.89006 71.259605Z" fill-rule="evenodd" fill="#ff0000" stroke="#ff0000" stroke-width="2.0" stroke-linecap="butt"></path></svg>

