<?xml version="1.0" encoding="utf-8"?>
<!-- Generator: Adobe Illustrator 15.0.2, SVG Export Plug-In . SVG Version: 6.00 Build 0)  -->
<!DOCTYPE svg PUBLIC "-//W3C//DTD SVG 1.1//EN" "http://www.w3.org/Graphics/SVG/1.1/DTD/svg11.dtd">
<svg version="1.1" id="Calque_1" xmlns="http://www.w3.org/2000/svg" xmlns:xlink="http://www.w3.org/1999/xlink" x="0px" y="0px"
	 width="1024px" height="768px" viewBox="0 0 1024 768" enable-background="new 0 0 1024 768" xml:space="preserve">
<g>
	<rect x="0.5" y="0.5" fill="none" stroke="#000000" stroke-miterlimit="10" width="1024" height="768"/>
	<path fill="none" stroke="#0000FF" stroke-miterlimit="10" d="M993.911,279.627l-35.181-42.553l-80.89-123.404l-75.551,12.765
		l-91.499,47.873l40.419,118.084l-50.003,91.606L598.011,366.86l28.717-86.172L475.651,153.024l-142.578-39.37l-139.412,91.474
		L0,142.33l0.197,348.436l68.189,58.5l55.938-6.657l108.037,10.928l20.213,97.873l150,48.936l109.676-37.233l-62.867-150
		l-88.61-53.682l-74.522-27.235l-145.379-53.13l88.299-19.149l102.888-9.011l7.447-81.915l76.596,2.128l53.191,82.979l7.447,86.731
		l62.767,45.184l187.234,9.574c0,0,36.17,70.213,38.297,73.404c2.129,3.191-107.447,56.383-107.447,56.383l-11.701,57.697
		l16.809,85.431h130l-5.197-70v-25.255l130.79-87.234l-24.454-86.17l-102.165-80.852l42.533-63.83l13.821-97.873l71.424,161.702
		L1024.5,408.5v-131L993.911,279.627z"/>
</g>
<line fill="none" stroke="#FF0000" stroke-miterlimit="10" x1="40.873" y1="249.276" x2="990.872" y2="335.447"/>
</svg>
