<?xml version="1.0" encoding="utf-8"?>
<!-- Generator: Adobe Illustrator 15.0.2, SVG Export Plug-In . SVG Version: 6.00 Build 0)  -->
<!DOCTYPE svg PUBLIC "-//W3C//DTD SVG 1.1//EN" "http://www.w3.org/Graphics/SVG/1.1/DTD/svg11.dtd">
<svg version="1.1" id="Calque_1" xmlns="http://www.w3.org/2000/svg" xmlns:xlink="http://www.w3.org/1999/xlink" x="0px" y="0px"
	 width="1024px" height="768px" viewBox="0 0 1024 768" enable-background="new 0 0 1024 768" xml:space="preserve">
<path fill="none" stroke="#0000FF" stroke-miterlimit="10" d="M0,3175.572l58.489-1.604l71.038-20.932l61.497-40.498l-46.498-3
	l0.487-33.645c0,0,25.762-36.102,31.012-41.352s46.497-61.498,50.997-65.998s52.498,21,52.498,21l62.996,70.496l46.498-35.998
	l79.227,7.922l40.768,23.576l29.998,43.498l-7.499,80.996l70.497,10.5l61.496-25.5c0,0-9.749-42.746-14.999-47.996
	s10.5-52.498,10.5-52.498l119.993-13.498l55.498,12l28.166-31.27l7.832-85.727l40.498,31.498l65.996,53.998h38.998
	c0,0,22.5-58.498,22.5-67.496c0-9,1.5-37.498,1.5-37.498s1.5-49.498-3-53.998s-33-53.996-33-53.996s-13.498-35.998-17.998-40.498
	s-25.5-32.998-25.5-32.998l18-44.998l25.498-34.498l15-38.998l-71.996-53.998l3-53.998l35.998-34.498l46.498-11.998l56.996,34.498
	c0,0,37.521,61.498,37.217,70.586c-0.303,9.09-29.717,31.408-29.717,31.408l-28.498,47.998l55.944,34.168
	c0,0,23.551,22.828,23.551,30.328s9,59.998,9,59.998l-16.5,29.998l-4.884,73.287l2.071,55.92l-6.188,14.783l-7.5,48l15,31.498
	l40.464-4.217l34.252,13.92l24.279,20.295l55.497,10.5l17.999-27l34.72-10.812l94.274-17.686l5.999,21c0,0,35.248,2.25,40.498-3
	s37.498-18,37.498-18l-13.499-55.498l-32.998-65.996c0,0,49.497,35.998,55.497,35.998c5.999,0,43.498-1.5,43.498-1.5l19.499-50.998
	l-1.5-41.996l-3-41.998l-20.999-22.785l60.325-130.039l45.174,18.068l27.994,52.26l55.498-1.5l-10.5-40.498l3-43.498
	c0,0,23.998-9,29.998-9s34.498,16.5,34.498,16.5s25.5,20.998,31.5,20.998s11.248,39.748,2.998,47.998
	c-8.248,8.25-16.498,1.5-20.998,6c-4.498,4.498,9,47.998,9,47.998l8.838,55.186l-16.338,24.311l-31.498,23.996l-7.5,28.5
	l10.5,32.998l35.998,1.5l13.498-58.498l64.498,53.998l7.649,105.416l35.848,187.07l52.497,40.498l-27.687,33.508l3.688,105.986
	l21,41.998l36.955-22.668c0,0,62.489-17.83,62.489-10.713c0,7.119,62.547,1.881,62.547,1.881l22.866-27.404l50.63,7.906
	l40.498-32.998l-32.248-32.248l17.249-17.248l1.5-34.5l31.498,7.5l-22.498-71.996l-4.5-37.498l12.26-61.365l16.87-55.545
	c0,0,44.367-40.582,48.866-45.082s14.228-48.174,14.228-48.174l35.271,27.174l10.188,27.711l8.059,11.559l13.252,11.729
	l21.687-11.795l20.312-27.203l-5.231-12.688l-4.729-1.857l-3.355-11.227l-9.361-6.773l-11.03,4l-12.79-16.453l69.195-17.873
	l101.797-40.625l15.838,45.719l8.16,39.777l43.498,19.5l71.998-1.5l68.995-35.998l4.708,74.996
	c-8.145,8.145,130.008,63.131,130.008,63.131l54.276,80.658h39.447c0,0,26.923-48.17,22.364-52.729
	c-2.827-2.826-15.08-34.992-15.08-34.992l-9.233-11.072c0,0,7.499-38.998,13.499-38.998s37.498,46.498,37.498,46.498
	s16.5-22.5,10.5-28.498c-6-6-16.5-47.998-16.5-47.998l20.72-10.027l37.777-40.971l15-43.498l-9.15-20.57l1.142-9.205l-7.633-5.391
	l-11.43,3.258l-10.427,12.41l-32.999-35.998c0,0,20.999-40.498,26.999-40.498s23.999,37.498,23.999,37.498l6.568,2.432l1.857-8.225
	l37.857-28.92l28.713-44.783c0,0-14.336-26.162-22.498-34.324s5.941-47.936,5.941-47.936l11.308-69.982l18.749-18.75l-1.5-28.498
	l-20.999-31.498l29.562-20.16l1.5-5.436l-3.856-5.059l-5.386-3.051l-11.078-5.127l-15.99-2.416l14.249-14.25l-20.999-58.496
	l-29.998-56.998l40.852-4.945l2.242-4.055l76.899-20.998l11.05-23.449l-11.05-11.049l-12.357-6.068l-20.641,0.068l-34.498-29.998
	l15.388-8.836l10.111-19.664c0,0,58.497-11.998,64.496-11.998s0,28.498,0,28.498s29.104,30.895,35.947,37.738
	c6.842,6.842,37.631-16.879,37.631-16.879l65.647-30.521l43.765,36.66l1.5-38.998l18-41.998l22.5-11.998l3.889-12.904l-2.389-12.596
	c0,0-13.5-17.998-21-17.998s-21-19.5-21-19.5l4.416-13.178l21.084-15.32l20.271,10.732l13.117,1.842l8.809,11.299l23.912,10.512
	l8.206-24.055l9.013-16.08l4.674-24.043l8.393-16.701l10.1-37.502l14.851-7.35l17.235-23.337l2.521-17.854l4.264-14.458
	l0.826-11.298l-24.673-32.197l-0.024-62.998l29.176-32.674l30.82-21.322c0,0-4.972-52.722-7.408-63.393
	c-2.437-10.672-12.091-43.102-12.091-43.102l-22.499-24l-36.748-3.75l-18.748-18.748l-32.978,16.496l-16.521-14.996l-4.779,32.824
	l-29.719-4.326l19.978,41.521l-11.537,67.275l6.56,95.194l-33,70.495l-75.166,33.771l-77.826,56.227
	c0,0-45.747-42.749-50.997-47.999c-3.168-3.168-27.747-40.862-27.747-40.862l-17.251-14.635l-56.997,43.498l-39.748-54.746
	l-27.749-27.75l-130.474-80.133l-52.388-24.562l-58.626,14.7l-7.209-20.909c0,0-16.79-31.588-22.79-31.588s-58.497-15-62.995-19.5
	c-4.5-4.498-46.498-7.498-46.498-7.498l-50.062,39.974l-24.936-30.976l-47.998-14.998l-43.746,33.9l-38.75,17.097l-182.989-23.999
	c0,0-28.499-29.998-34.498-29.998c-1.81,0-16.07,3.623-16.07,3.623l-23.224-12.127l-22.203,1.004l-26.486-1.938l-33.41,6.975
	l-49.828,5.529l-26.769,5.932l-23.438-11.594l-26.061-3.404l-35.998-32.998l-47.996,38.998l-176.992-13.5l-73.496-49.498
	l-91.496,32.998l-16.499,70.497l23.999,17.999l6,47.998l-30.971,23.789l-14.272,54.992l-10.254,38.212h-49.498l-20.999,52.497
	l-64.496,55.496l-71.997,47.998l-61.497-28.498l-43.498,13.5l-29.998,70.496l-74.996,3l-86.996,13.5l-46.496-13.5l-15.052-23.01
	c0,0-29.948-23.488-37.446-23.488c-7.5,0-10.5-20.998-16.5-26.998s-22.498-13.5-22.498-13.5l-10.5,32.998l-25.498,7.5
	l-19.306,25.473l-27.192-37.473l-10.441,39.078l-50.591,28.039l4.035,16.879c0,0-17.999,41.998-17.999,50.998
	s-32.998-4.5-32.998-4.5s-54.962-125.992-47.627-125.992s29.627-49.5,29.627-49.5l-47.997-28.496l-9-46.499l-11.999-68.995
	l91.495,11.998c0,0,115.493-34.498,122.993-41.996c7.5-7.5,62.998,16.498,62.998,16.498l22.262,39.275l99.232,31.221l142.491-10.5
	l-2.894-19.871l25.393-32.625l20.998-22.5c0,0,27.749,6.75,32.999,12c5.249,5.25,36.237,0.658,42.366-1.58
	c6.128-2.24,40.13-35.918,40.13-35.918l5.448-18.1l6.794-6.387l1.257-2.512l16.5-32.999l38.998,25.499l7.98-5.816l15.15-36.547
	l10.075-6.1l-0.685-5.373l24.27-55.416l-1.445-40.387l-1.349-20.416l-19.924-1.5l-11.562,3.456l-40.321-4.582l-13.959-3.206
	l-26.15-6.316l-23.28,2.671l-5.13-13.608l-6.165-7.02l-13.33-24.348l-8.565-3.876l-8.604,30.394l-31.498,28.498l-103.159-8.508
	l-13.619-5.275l-11.248,3.224l-17.466-1.44l-9.19-10.215c0,0-29.969-15.445-32.807-18.283c-4.5-4.5-63.154,14.899-63.154,14.899
	l-56.842,22.599l-61.64-4.5l-64.353-7.5l-4.5-22.498l-18-18l-32.997-3l-19.499-29.998l-22.499-28.499l-22.019,22.019l-0.003,0.003
	l-3.478,3.478l-22.499,28.498l-23.998-10.498l-31.499,50.996l-31.498-14.998l-20.999-22.5v-23.998l13.499-40.499l43.498-43.497
	l-41.998-40.497l37.498-49.498l47.998-17.999l49.497-62.996l52.498,40.498l-7.5,26.998l38.997,38.998l38.998,8.999l14.078-26.981
	l41.776-58.711l14.642-16.303l69.047,12.557l11.951-45.555l57.051,33.684l32.518,32.518l106.653,33.012l10.789,3.34l15.932,4.932
	l50.042,74.006l31.499,18l5.574-22.774l7.664-13.803l4.761-29.42l43.498,40.497l0.249-61.745l16.555,9.383l10.462-0.646l8.732,6.512
	l60.939-46.496l41.711-19.5l2.345-13.5l-23.999-14.999l-27.918-16.119l-14.514-3.746l-8.565-1.134l17.999-28.499l28.369-2.806
	l18.332-5.945h0.001l26.794-2.249l13.499,38.998l46.567-6.11l145.551-101.695l51.463,28.48l9.906-25.169l67.496-4.5l28.485-48.642
	l-16.632-23.504l-23.846-26.954l-35.394-36.505l-81.608-66.887l-16.621-22.553l-1.678-6.281l-23.346-5.615l-0.884-29.655
	l-3.923-7.156l-49.543,23.265l-44.998-22.5l0.051-22.497l-18.05-19.954h-29.734l-54.261-11.545l-6-28.5l-8.445-42.385
	l-17.804-75.358l-15.229,15.229l-3.52,3.52c0,0-1.029,1.387-2.77,3.681l-36.297,41.556l-41.93,1.26v-19.497
	c0-2.385-1.588-6.038-4.021-10.223l-0.599-4.43l-8.848-9.435c-5.97-7.887-4.204-11.463-5.56-11.758c0,0-6.63-6.337-6.65-6.334
	l-2.831-4.414l-40.487,9.095l-25.499-34.5l9.243-26.165l21.191-23.735l22.062-10.095v-19.5l-23.999-22.498l-43.804-70.257
	l-30.984-30.239l-63.204-16.499l-34.498-37.931l-98.995,15.381h-27.373h-16.349l-61.272,3.052l-24-37.499l-8.998-47.998
	l-22.5,11.999l-38.998,3l-4.493,32.401l-27.056-0.312l-0.119,0.221l-1.436-0.007l-14.894,30.695l-18.728-23.259l-0.652,0.079
	l-1.524-1.822l-39.019,6.723l-47.717,4.169l-20.916,46.222l-43.729,51.679l-116.586,15.864l-2.29-0.67l-25.117-16.694v-56.997
	l-17.12-37.408l-12,29.999l-32.998,2.998l-22.901,46.049l-31.096-8.55V471.05l-7.13-28.146l-0.14,0.823l0.14-0.823l-36.5-141.472
	l3.002-33.958l55.798,43.789l0.176-1.039l-0.176,1.039l12.215,9.292l7.672-5.869l-3.174-12.276l4.881-19.676l-11.891-28.756
	l6.456-38.111l1.306-4.035l33.158,0.216l29.203-19.053l-5.593-50.843l27.34,30.35l21.591,7.221l2.408,9.445l37.007,3.736
	l12.802,59.584l33.824,19.989l32.288,1.537l37.28,70.151l6.884-2.178l46.39-14.274l41.52-17.949l-41.773-62.387l35.228-18.16
	l13.211-27.728l35.758-34.372h125l53.093,82.034l7.893-1.15l7.941-3.343l15.064-8.748c0.869-0.137,1.477-0.102,1.757,0.139
	l0.195,0.39c0,4,31.726,63.452,31.726,63.452l49.2-59.964l11.911-63.421l75.113,10.949l29.375,163.797l55.355,47.356l85.96-18.106
	l41.403-104.371l31.295-2.266l33.979-26.25l35.362,39.976l-24.039,50.911l-11.323,56.715l61.598,18.371l55.133,77.741l30.871-3.86
	l7.225,25.062l31.378-13.883v0.009l2.884,60.971l4.64,54.38l47.662-25.063l-14.437-72.62l35.221-50.87l3.244,2.633l2.937,5.582
	l5.817,1.521l5.655,4.591l36.355-25.592l26.683,73.255l44.432-44.432l100.412,46.932l22.373,36.74l78.787,14.572l-19.987,47.664
	l24.6,19.986l-92.158,23.595l-64,68l-4,88l-51.122-7.064l-18.878,67.064l51.614,37.294l85.221-62.75l39.512,45.701l-1.539,39.977
	l83.302,13.164l95.688,129.158l-14.476,43.717l-23.062,44.588l15.551,24.518l4.437,63.121l-79.95-3.076l-9.226,36.902
	l-158.439,35.191l-56.812,18.621l-53.819-25.727l-67.356,20.879l-44.644,61.552l36.668,92.813l-33.825,43.643l79.771,3.311
	l27.856-26.965l44.588-3.455l16.912-35.363l10.763-52.275l24.6,70.727l32.979,28.521l-49.969,49.969l81.565-0.077l3.075-99.938
	l23.062-66.112l61.61,91.762l88.117-9.559l36.311,13.123l35.055-21.157l27.983,56.521l8.728-4.939l12.798-35.037l27.784,57.906
	l7.58,5.133l5.826-7.241l18.586-85.05l112.426,20.026l29.348-37.169l57.344-133.213l-32.879-60.244l120.249-115.93l61.712-124.434
	l17.916-67.14l39.912,20.72l76.939,14.643l69.666-26.217l54.873-15.296l61.752,55.896l48.948,56.342l78.413,10.764l-50.736,72.264
	l33.824,24.6l-55.351,15.374l46.125,36.901l-58.427,93.789l66.115-1.537v103.041l-37.048,59.358l33.97,39.015l-105.153,68.424
	l-55.431,55.432l65.259,25.283l81.489-12.397l56.887,23.161l93.893-20.381l32.184-28.82l31.436-7.004l103.866-71.408l-0.089-53.726
	l49.289,10.675l-9.225-73.801l29.479-7.5l24.815-32.201l56.407-13.995l35.37-15.454l47.655-36.938l52.276,43.051l1.518,19.987
	l10.782,44.587l50.738,24.601l29.073,38.438h36.45l-16.324,87.64l56.889,49.199l46.125,67.65l-26.138,81.488l24.339,68.512
	l8.547,69.847l-2.136,99.958l22.002,116.889l-30.97,30.969l-1.795,45.867l-59.715,32.289l-52.522,50.738l-27.676,52.275
	l-32.288-19.988l-18.45,70.727l-60.347-37.568l-78.524,45.256l-13.343,47.664l-46.971-11.213l-52.771,44.766l1.341,77.146
	l-48.777,99.592l-60.385,55.697l13.817,106.371l38.457,64.293l-16.912,55.352l-43.051,38.436l-33.825,12.303l26.139,43.049
	l-58.341,29.299l13.583,24.293l-25.969,24.822l13.837,84.562l-121.715,154.184l-41.261,8.795l1.537,73.801l-41.512,90.713
	l-35.479-10.512l-25.437-25.438l-37.487-39.389l-50.737,35.361v66.113l10.763,47.664l-213.715-24.6l-52.465-35.736l-47.475,37.273
	l-72.262-37.889l-21.525-49.752l-35.363,18.451l-41.514-33.826l-92.25,81.49l-93.787-16.363l-103.014-0.549l-53.813,36.9
	l-104.551,41.512l-22.959-36.387l-50.178-50.643l-47.5,50.955H1843.9l-71.076,90.854l-70.121,66.938l-72.492,10.283l-192.214-27.449
	l4.612-81.486l-36.9-6.15l-13.641-107.904l-32.484-38.16l-32.288-32.287l-98.401-9.225l-207.564-86.102l-58.426,15.375
	l-43.051-90.713l-47.662,27.676c0,0-84.563-61.174-84.563-59.963c0,1.209-152.07,84.969-152.07,84.969l-172.346-14.242l-19.988,36.9
	l-21.524,46.125l-43.051,6.148l-39.976-23.061l6.149-29.213l-7.688-52.275l-49.2-21.525l-12.3-50.738l-56.888,29.213l-50.331,32.137
	l-41.92-24.449L0,3308.812"/>
<rect x="0.5" y="0.5" fill="none" stroke="#000000" stroke-miterlimit="10" width="1024" height="768"/>
<line fill="none" stroke="#FF0000" stroke-miterlimit="10" x1="327.5" y1="291.5" x2="897.845" y2="344.735"/>
</svg>
