<?xml version="1.0" encoding="utf-8"?>
<!-- Generator: Adobe Illustrator 15.0.2, SVG Export Plug-In . SVG Version: 6.00 Build 0)  -->
<!DOCTYPE svg PUBLIC "-//W3C//DTD SVG 1.1//EN" "http://www.w3.org/Graphics/SVG/1.1/DTD/svg11.dtd">
<svg version="1.1" id="Calque_1" xmlns="http://www.w3.org/2000/svg" xmlns:xlink="http://www.w3.org/1999/xlink" x="0px" y="0px"
	 width="2048px" height="2048px" viewBox="0 0 2048 2048" enable-background="new 0 0 2048 2048" xml:space="preserve">
<path fill="#4D4D4D" stroke="#FFFFFF" stroke-miterlimit="10" d="M0.002,0v643.662c14.729,7.908,82.392,41.17,173,38.338
	c102.761-3.209,133.363-75.088,212.001-123.997c78.638-48.914,242.271-49.251,314.998,21c88.002,85.001,212.18,166.449,397,120.999
	c184.82-45.448,170.21-326.729,276.002-427c105.789-100.269,238.21-112.76,371.998-55c133.788,57.759,259,275.998,186.997,391.998
	c-81.479,131.273-431.089,40.912-476.999,220c-45.91,179.086,110.703,548.418,393,587.999
	c282.3,39.582,127.269,435.879-24.003,514.999c-73.68,38.539-105.71,81.282-119.189,115.001h343.189V0H0.002z"/>
<path fill="#333333" stroke="#FFFFFF" stroke-miterlimit="10" d="M0.002,860.569v1187.432h1243.549
	C1272.26,1852.948,1560.279,1841.997,1630,1800c75.451-45.448-72.42-163.639-184.999-108.999
	c-112.581,54.64-317.73,218.088-700,153.997c-382.271-64.088-338.939-481.359-284.001-581c54.943-99.641,102.642-242.786,36-361
	c-66.641-118.21-248.52-24.209-351.999-8.998C86.432,902.608,34.264,880.97,0.002,860.569z"/>
</svg>
