<?xml version="1.0" encoding="utf-8"?>
<!-- Generator: Adobe Illustrator 15.0.2, SVG Export Plug-In . SVG Version: 6.00 Build 0)  -->
<!DOCTYPE svg PUBLIC "-//W3C//DTD SVG 1.0//EN" "http://www.w3.org/TR/2001/REC-SVG-20010904/DTD/svg10.dtd">
<svg version="1.0" id="Calque_1" xmlns="http://www.w3.org/2000/svg" xmlns:xlink="http://www.w3.org/1999/xlink" x="0px" y="0px"
	 width="4000px" height="4000px" viewBox="0 0 4000 4000" enable-background="new 0 0 4000 4000" xml:space="preserve">
<path fill="#6600AF" d="M270.722,407.002l54.647-36.088l47.43,51.554c0,0,30.932,4.125,30.932-2.062
	c0-6.188,22.684-18.561,22.684-18.561l28.87,16.497l34.024,80.424l59.803,4.124l46.176,55.838l174.817-168.911l61.521-43.649
	l13.404,39.181l78.36,19.591c0,0,5.672,14.95,10.312,10.311s10.311,26.808,10.311,26.808l76.545,46.398l45.29-70.113l16.329-36.088
	l75.269,46.398l60.672,36.088l25.938-3.093l29.901,56.709l-3.151,46.439l-145.088,86.751l-191.799,55.685L784.96,662.03
	l-105.408,67.552l-205.709,10.457l-77.325,41.438l-64.512-64.963l-196.22-52.591l13.268-110.508L270.722,407.002z"/>
<path fill="#6600AF" d="M324.515,173.635 370.911,272.629 418.853,247.883 482.261,295.826 558.041,295.826 576.601,244.791 
	658.406,195.632 795.316,113.339 809.625,201.488 845.697,192.208 884.36,230.873 921.477,278.814 963.621,159.355 
	1052.616,202.239 1103.968,247.883 1176.655,232.419 1229.237,192.208 1330.405,289.947 1380.798,357.688 1425.646,221.593 
	1492.105,283.617 1490.601,357.688 1438.02,424.189 1467.403,476.771 1487.508,476.771 1558.188,535.538 1608.138,524.713 
	1647.377,426.465 1591.127,39.101 1407.357,5 1237.085,32.967 944.673,6.621 757.571,60.105 412.778,67.024 182.236,79.245 "/>
<path fill="#6600AF" d="M1297.972,827.167l58.082-140.069l91.246-21.65l47.942,47.941l38.664-15.465l55.675-10.826l26.291,91.246
	L1670,849.484l35.57,18.559c0,0-1.431,59.705,3.72,64.854s-6.813,131.556-6.813,131.556l-86.33-25.506l-124.351,6.54l-85.217,16.882
	l-132.239-54.93l-48.197-83.721L1297.972,827.167z"/>
<path fill="#6600AF" d="M2244.52,981.188 2159.672,830.059 2079.133,865.433 2019.332,904.461 2028.797,1004.135 
	2069.007,1014.961 2058.182,1053.625 2098.391,1067.544 2086.02,1130.953 2256.138,1174.254 2308.756,1020.765 "/>
<path fill="#6600AF" d="M1738.049,448.931 1759.7,515.432 1796.817,516.979 1833.934,554.095 1854.04,547.909 
	1895.051,502.346 1942.191,462.849 1932.543,388.013 1811.645,342.195 1759.369,392.208 "/>
<path fill="#6600AF" d="M1301.388,1382.677l28.503,65.581l94.213,60.049l77.325-47.941c0,0,29.385-49.489,23.198-43.303
	c-6.187,6.186,37.116-12.373,37.116-12.373l13.918,23.197l21.651,17.012l37.887-34.791l20.944-39.44l-1.104-108.395l-64.368-49.868
	l-117.082-18.043l-88.08-4.473l-44.802,63.363l44.865,106.718L1301.388,1382.677"/>
<path fill="#6600AF" d="M796.961,1631.278l47.038-70.505l39.181,35.057l57.74-30.932l82.486,6.187c0,0,45.368,53.616,53.616,53.616
	c8.249,0,78.361-8.249,78.361-8.249l39.182-14.436l29.9,29.901l27.351,45.947l-12.542,70.018l-79.771-10.503l-63.527,66.865
	l-94,56.876l-139.418-21.958l-58.566-2.79l-71.151-74.246l14.238-79.688L796.961,1631.278"/>
<path fill="#6600AF" d="M2149.218,1776.303l10.433-71.179l43.305,4.124l41.242-26.808l30.934-22.685l63.927,49.491l38.282,74.902
	l75.136,75.635c0,0,82.081-53.907,75.304-60.686c-6.775-6.774-18.011-77.479-18.011-77.479l41.689-47.429l82.485,16.496
	c0,0,4.125-22.055,4.125-32.365c0-10.312,32.537-63.408,32.537-63.408l54.131,9.279l-3.094-80.419l82.258-9.571l52.756,52.874
	l42.873-0.085l12.805,26.775l-4.124,51.554l-18.223,64.264l51.217,73.899l31.326,123.22l-55.65,140.035l-160.864-27.843
	l-117.554,18.562l-179.425-6.187l-126.763-15.469l-164.029-15.468l-56.024-124.054L2149.218,1776.303"/>
<path fill="#6600AF" d="M2830.26,793.86l-87.646,27.842l-110.341,37.122l-4.972,132.059l57.222,110.688l61.861-4.641
	c0,0,32.479,32.479,26.292,38.665c-6.188,6.187,29.384,30.931,29.384,30.931l41.758-30.931l15.465-54.129l46.396-12.372
	l29.384,30.932l15.464,32.478l-1.547,40.21l64.956-1.547l52.583-60.313l40.209-119.084l-7.787-83.9l-54.372-41.998l-118.622-62.939
	L2830.26,793.86z"/>
<path fill="#6600AF" d="M3160.51,1986.124 3197.975,1928.966 3236.637,1967.629 3272.208,1930.513 3312.418,1938.244 
	3326.337,1972.27 3377.372,1966.083 3408.303,1952.164 3462.432,1955.256 3484.083,1981.548 3448.513,1874.836 3499.548,1867.104 
	3518.105,1817.616 3558.314,1817.616 3604.711,1839.267 3628.391,1929.454 3628.391,1978.807 3592.841,2040.316 3561.247,2120.071 
	3491.271,2140.55 3409.85,2143.934 3358.87,2135.758 3297.562,2161.201 3212.748,2150.812 3179.741,2086.868 3162.404,1992.374 "/>
<path fill="#6600AF" d="M3649.154,1217.673l-116.663,24.748l-33.603,131.339l28.496,106.711h35.571c0,0,26.291,4.641,26.291,10.827
	s6.187,41.755,6.187,41.755l28.61,28.611l40.983-17.785l7.731-51.035l27.838-29.384l32.478,51.034v49.488l38.663,26.291
	l38.663-10.825c0,0,72.74-103.752,72.74-97.499c0,1.701,11.524-73.185,11.524-73.185l-35.431-128.119l-127.708-1.227
	L3649.154,1217.673z"/>
<path fill="#6600AF" d="M3812.456,2393.834l-31.445-61.057c0,0,1.548-38.392,1.548-35.729c0,3.532,24.354,0,24.354,0l15.855,30.931
	l21.65-52.582l7.732-77.325l-35.569-35.571l20.104-52.582l41.757-34.023l-21.65-71.141l34.023,15.466l10.825,81.968l15.466,92.791
	l44.85,64.955l12.55,71.774l-2.304,85.829l-37.55,62.299l-76.072-3.094L3812.456,2393.834"/>
<path fill="#6600AF" d="M2527.996,3834.799 2406.443,3748.181 2398.576,3619.412 2345.371,3496.229 2419.48,3509.117 
	2461.367,3467.229 2509.699,3435.009 2578.975,3504.283 2619.25,3422.12 2651.472,3383.455 2709.47,3476.896 2783.578,3618.668 
	2813.438,3779.146 2880.241,3689.403 2880.241,3615.446 2899.574,3560.671 2899.574,3512.339 2980.127,3515.561 3005.903,3489.784 
	3080.833,3615.094 3064.032,3718.554 3010.609,3747.255 3025.236,3847.438 2972.592,3853.552 2931.197,3888.309 2813.777,3901.946 
	2697.718,3952.354 2592.238,3897.732 "/>
<path fill="#6600AF" d="M1274.757,3751.319l-37.524-55.585l26.293-88.456l30.246-25.623l10.553-82.205l61.527-28.999l77.33,32.222
	l19.333,74.108c0,0,64.442,77.33,64.442,61.22s57.998-103.107,57.998-103.107l70.886-45.108l83.775,22.555l74.736-74.736
	l48.802,37.17l69.283,85.395l65.657-0.692l53.305,115.175l48.782,72.904l6.094,152.303l-81.633,81.633l-165.809-8.389
	l-197.833-73.339l-156.6,86.229l-45.014-27.981l-135.683-5.654l-57.739-114.58L1274.757,3751.319z"/>
<path fill="#6600AF" d="M845.84,2220.939 879.312,2104.278 913.543,2054.734 972.754,2062.391 1017.863,2023.726 
	1069.417,2120.389 1124.193,2194.498 1188.635,2130.056 1249.855,2088.168 1308.236,2034.359 1391.628,2075.279 1444.051,2127.166 
	1481.532,2214.235 1450.538,2294.216 1339.171,2356.087 1182.191,2360.293 1054.048,2365.886 918.451,2396.303 858.04,2343.261 
	845.84,2220.939 "/>
<path fill="#6600AF" d="M3482.746,2860.339 3390.993,2787.806 3340.254,2737.803 3357.266,2725.43 3340.254,2646.557 
	3374.277,2640.37 3426.86,2680.58 3395.93,2550.672 3386.65,2459.426 3460.884,2434.684 3513.467,2416.124 3566.521,2460.973 
	3603.449,2601.424 3650.046,2677.82 3618.158,2756.979 3604.02,2834.542 "/>
<path fill="#6600AF" d="M2890.616,2967.031l-111.15-6.354l-65.717-69.402l-121.693-61.871l-68.058,49.741l-53.325,74.732
	l13.108,113.634l30.558,82.896l74.237,78.643l32.993-65.989l41.243,82.486l45.835-29.338l-4.592-44.899l55.678,55.679
	c5.841,5.841,75.75,66.444,75.75,66.444l78.911-19.016l64.352-77.98l2.575-99.137l23.808-70.341L2890.616,2967.031z"/>
<path fill="#6600AF" d="M816.366,3853.355 658.596,3751.27 534.854,3735.802 356.517,3732.709 247.041,3639.902 
	207.672,3476.678 207.743,3402.503 228.867,3333.915 290.192,3274.865 359.428,3333.102 408.919,3290.334 460.61,3318.175 
	483.156,3361.972 584.202,3355.785 631.517,3313.179 673.514,3275.361 771.857,3254.739 841.97,3339.848 887.271,3404.55 
	902.985,3537.578 841.114,3630.971 918.452,3737.282 "/>
</svg>
