<?xml version="1.0" encoding="utf-8"?>
<!-- Generator: Adobe Illustrator 15.0.2, SVG Export Plug-In . SVG Version: 6.00 Build 0)  -->
<!DOCTYPE svg PUBLIC "-//W3C//DTD SVG 1.1//EN" "http://www.w3.org/Graphics/SVG/1.1/DTD/svg11.dtd">
<svg version="1.1" id="Calque_1" xmlns="http://www.w3.org/2000/svg" xmlns:xlink="http://www.w3.org/1999/xlink" x="0px" y="0px"
	 width="4000px" height="4000px" viewBox="0 0 4000 4000" enable-background="new 0 0 4000 4000" xml:space="preserve">
<path fill="none" stroke="#0000FF" d="M35.184,3141.193l129.527-22.537l61.496-40.498l-46.498-3l0.487-33.645l82.009-107.35
	l52.498,21l62.996,70.496l46.498-35.998l79.227,7.922l40.767,23.576l29.998,43.498l-7.499,80.996l70.498,10.5l61.496-25.5
	l-14.999-47.996l10.5-52.498l175.491-1.498l28.166-31.27l7.832-85.727l106.494,85.496h38.998l21-158.992l-76.498-127.492
	l58.498-118.494l-71.996-53.998l3-53.998l35.998-34.498l46.498-11.998l56.996,34.498l37.217,70.586l-58.215,79.406l55.944,34.168
	l23.551,30.328l9,59.998l-16.5,29.998l-16.5,191.99l15,31.498l40.464-4.217l114.028,44.715l17.999-27l128.995-28.498l5.999,21
	l40.498-3l37.498-18l-46.497-121.494l55.497,35.998l43.498-1.5l19.499-50.998l-4.5-83.994l-20.999-22.785l60.325-130.039
	l45.174,18.068l27.994,52.26l55.498-1.5l-7.5-83.996l29.998-9l65.998,37.498l2.998,47.998l-20.998,6l17.838,103.184l-47.836,48.307
	l-7.5,28.5l10.5,32.998l35.998,1.5l13.498-58.498l64.498,53.998l43.497,292.486l52.497,40.498l-27.686,33.508l3.687,105.986
	l21,41.998l36.954-22.668l125.037-8.832l22.867-27.404l50.629,7.906l40.498-32.998l-32.248-32.248l17.25-17.248l1.5-34.5l31.498,7.5
	l-26.998-109.494l29.129-116.91l48.867-45.082l14.227-48.174l35.271,27.174l18.246,39.27l13.252,11.729l21.687-11.795l20.312-27.203
	l-5.231-12.688l-4.729-1.857l-3.355-11.227l-9.361-6.773l-11.03,4l-12.79-16.453l170.992-58.498l23.998,85.496l43.498,19.5
	l71.998-1.5l68.995-35.998l4.708,74.996l130.008,63.131l54.276,80.658h39.447l22.364-52.729l-24.313-46.064l13.498-38.998
	l37.498,46.498l10.5-28.498l-16.5-47.998l20.721-10.027l37.777-40.971l15-43.498l-9.15-20.57l1.142-9.205l-7.633-5.391l-11.43,3.258
	l-10.427,12.41l-33-35.998l27-40.498l24,37.498l6.567,2.432l1.857-8.225l66.57-73.703l-22.497-34.324l17.248-117.918l18.749-18.75
	l-1.5-28.498l-20.999-31.498l29.562-20.16l1.5-5.436l-3.856-5.059l-32.453-10.594l14.248-14.25l-50.996-115.494l40.851-4.945
	l2.242-4.055l76.899-20.998l11.049-23.449l-23.406-17.117l-20.641,0.068l-34.498-29.998l15.388-8.836l10.111-19.664l64.496-11.998
	v28.498l35.947,37.738l103.278-47.4l43.765,36.66l1.5-38.998l18-41.998l22.5-11.998l3.889-12.904l-2.389-12.596l-42-37.498
	l4.416-13.178l21.084-15.32l33.389,12.574l8.809,11.299l23.912,10.512l40.385-118.381l14.851-7.35l17.235-23.336l7.611-43.611
	l-24.673-32.197l-0.024-62.996l59.996-53.998l-19.499-106.494l-22.499-24l-36.748-3.748l-18.748-18.749l-32.978,16.497
	l-16.521-14.997l-4.779,32.823l-29.719-4.326l19.978,41.521l-4.978,162.469l-33,70.496l-152.992,89.996l-95.995-103.494
	l-56.996,43.496l-67.498-82.494l-182.861-104.697l-58.626,14.701l-29.999-52.498l-109.493-26.998l-50.062,39.975l-24.937-30.975
	l-47.998-15l-82.496,50.998l-182.989-24l-34.498-29.998l-16.07,3.625l-23.223-12.129l-158.697,17.504l-49.498-15l-35.998-32.998
	l-47.996,38.998l-176.992-13.5l-73.496-49.498l-91.496,33l-16.499,70.496l23.999,17.998l6,47.998l-30.971,23.789l-24.526,93.205
	h-49.498l-20.999,52.496l-136.494,103.494l-61.497-28.498l-43.498,13.5l-29.998,70.496l-161.992,16.5l-46.496-13.5l-15.052-23.01
	l-37.446-23.488l-16.5-26.998l-22.498-13.5l-10.5,32.998l-25.498,7.5l-19.306,25.473l-27.192-37.473l-10.442,39.078l-50.59,28.039
	l4.035,16.879l-17.999,50.998l-32.998-4.5l-47.627-125.992l29.627-49.5l-47.997-28.496l-20.999-115.494l91.495,12l122.993-41.998
	l62.998,16.5l22.262,39.273l99.232,31.221l142.491-10.5l-2.893-19.869l46.39-55.125l32.999,11.998l42.367-1.58l40.129-35.918
	l5.449-18.1l6.794-6.385l17.756-35.512l38.998,25.498l7.981-5.816l15.15-36.547l10.076-6.098l-0.685-5.373l24.27-55.416
	l-2.794-60.805l-19.924-1.499l-11.563,3.456l-103.711-11.434l-24.625-44.977l-8.565-3.876l-8.605,30.395l-31.498,28.497
	l-116.778-13.781l-11.248,3.222l-17.466-1.441l-41.997-28.496l-119.996,37.496l-125.992-11.997l-4.5-22.499l-18-17.999l-32.997-3
	l-41.998-58.499l-47.998,53.999l-23.998-10.499l-31.499,50.997l-31.498-14.999l-21-22.499l13.5-64.499l43.498-43.496l-41.998-40.498
	l37.498-49.498l47.998-17.999l49.497-62.996l52.498,40.498l-7.5,26.998l38.997,38.997l38.998,9l70.496-101.995l69.047,12.555
	l11.951-45.553l222.942,107.484l50.042,74.007l31.499,18l17.999-65.998l43.498,40.498l0.249-61.746l16.555,9.383l10.462-0.647
	l8.732,6.512l102.651-65.995l2.345-13.5l-74.996-35.998l17.999-28.499l73.496-11l13.499,38.998l46.567-6.112l145.551-101.695
	l51.463,28.481l9.906-25.169l67.496-4.5l28.485-48.641l-174.1-176.402l-1.678-6.283l-23.346-5.615l-0.883-29.654l-3.923-7.156
	l-49.543,23.264l-44.998-22.499l0.051-22.498l-18.05-19.953l-83.995-11.547l-32.249-146.242l-57.816,63.986l-41.93,1.26l-4.62-34.15
	l-23.888-31.941l-40.488,9.095l-25.499-34.5l9.243-26.165l21.192-23.735l22.062-10.095v-19.5l-98.787-122.994l-63.204-16.499
	l-34.498-37.931l-203.989,18.433l-24-37.499l-8.998-47.998l-22.5,11.999l-38.998,3l-4.493,32.401l-27.056-0.313l-0.119,0.221
	l-1.436-0.007l-14.894,30.696l-18.728-23.259l-0.652,0.079l-1.525-1.822l-86.735,10.891l-64.645,97.901l-116.586,15.864
	L523.4,498.079v-56.997l-17.12-37.409l-12,29.999l-32.998,2.998l-22.901,46.048l-31.096-8.549l-7.13-65.644l-0.139,0.823
	l0.139-0.823l-33.498-175.43l55.798,43.789l0.176-1.039l-0.176,1.039l12.215,9.291l7.672-5.868l-3.174-12.277l4.881-19.676
	l-11.891-28.756l7.762-42.146l33.158,0.215l29.203-19.053l-5.593-50.843l27.34,30.35l21.591,7.22l2.408,9.446l37.007,3.736
	l12.802,59.584l33.824,19.989l32.288,1.537l37.281,70.152l94.792-34.401l-41.773-62.387l35.228-18.161l13.211-27.727l35.757-34.372
	h125l53.093,82.034l30.899-13.241l1.756,0.138l31.921,63.842l49.2-59.965l11.912-63.42l75.113,10.949l29.375,163.797l55.355,47.356
	l85.96-18.106l41.404-104.371l31.295-2.266l33.978-26.25l35.362,39.975l-35.362,107.626l61.598,18.372l55.133,77.741l30.871-3.861
	l7.224,25.063l31.378-13.883l7.524,115.359l47.662-25.062l-14.437-72.621l35.221-50.87l3.244,2.633l2.937,5.582l5.817,1.521
	l5.655,4.591l36.356-25.592l26.682,73.255l44.432-44.432l100.412,46.932l22.373,36.739l78.787,14.573l-19.987,47.665l24.601,19.986
	l-92.16,23.595l-64,68l-4,88l-51.122-7.065l-18.878,67.065l51.615,37.294l85.22-62.75l39.512,45.702l-1.539,39.974l83.303,13.164
	l95.688,129.16l-37.538,88.305l15.551,24.518l4.437,63.119l-79.95-3.074l-9.226,36.9l-215.251,53.814l-53.82-25.726l-67.356,20.878
	l-44.644,61.552l36.668,92.814l-33.825,43.641l79.771,3.31l27.856-26.964l44.588-3.455l27.675-87.638l24.599,70.725l32.98,28.522
	l-49.969,49.969l81.566-0.078l26.137-166.05l61.611,91.76l88.116-9.557l36.31,13.122l35.056-21.156l27.983,56.519l8.728-4.938
	l12.798-35.038l27.784,57.907l7.58,5.133l5.826-7.242l18.586-85.049l112.426,20.026l86.691-170.383l-32.879-60.244l181.961-240.362
	l17.916-67.14l116.852,35.363l124.539-41.513l110.7,112.237l78.413,10.764l-50.736,72.262l33.824,24.601l-55.351,15.374
	l46.125,36.902l-58.427,93.788l66.115-1.538v103.043l-37.048,59.358l33.97,39.015l-160.584,123.855l65.259,25.284l81.489-12.398
	l56.887,23.16l93.893-20.381l32.184-28.82l31.435-7.003l103.867-71.409l-0.089-53.725l49.289,10.675l-9.225-73.801l29.479-7.499
	l24.815-32.202l139.433-66.388l52.276,43.051l12.3,64.574l50.738,24.6l29.073,38.439h36.45l-16.325,87.64l103.015,116.851
	l-26.138,81.486l52.752,355.205l-30.97,30.969l-1.795,45.867l-112.237,83.027l-27.676,52.275l-32.288-19.988l-18.45,70.727
	l-60.347-37.568l-78.524,45.256l-13.342,47.664l-46.972-11.213l-52.771,44.766l1.341,77.146l-48.777,99.592l-60.385,55.697
	l13.817,106.371l38.457,64.293l-16.912,55.352l-43.051,38.436l-33.825,12.303l26.139,43.049l-58.341,29.299l13.583,24.293
	l-25.97,24.822l13.838,84.562l-121.715,154.184l-41.261,8.795l1.537,73.801l-41.512,90.713l-35.479-10.512l-62.924-64.826
	l-50.737,35.361l10.763,113.777l-213.715-24.6l-52.464-35.736l-47.476,37.273l-72.262-37.889l-21.525-49.752l-35.362,18.451
	l-41.515-33.826l-92.25,81.49l-196.801-16.912l-158.364,78.412l-73.137-87.029l-47.5,50.955h-31.578l-141.197,157.791
	l-264.706-17.166l4.612-81.486l-36.9-6.15l-13.641-107.904l-64.773-70.447l-305.965-95.326l-58.426,15.375l-43.051-90.713
	l-47.662,27.676l-84.563-59.963l-152.071,84.969l-172.345-14.242l-41.513,83.025l-43.051,6.148l-39.976-23.061l6.15-29.213
	l-7.688-52.275l-49.2-21.525l-12.3-50.738l-107.218,61.35l-41.92-24.449l-126.496,27.676V3141.193"/>
	<rect x="0" fill="none" stroke="#000000" stroke-miterlimit="10" width="4000" height="4000"/>
	<line fill="none" stroke="#FF0000" stroke-miterlimit="10" x1="2327.5" y1="1523" x2="2897.845" y2="1576.235"/>
</svg>
