<?xml version="1.0" encoding="utf-8"?>
<!-- Generator: Adobe Illustrator 15.0.2, SVG Export Plug-In . SVG Version: 6.00 Build 0)  -->
<!DOCTYPE svg PUBLIC "-//W3C//DTD SVG 1.1//EN" "http://www.w3.org/Graphics/SVG/1.1/DTD/svg11.dtd">
<svg version="1.1" id="Calque_1" xmlns="http://www.w3.org/2000/svg" xmlns:xlink="http://www.w3.org/1999/xlink" x="0px" y="0px"
	 width="4000px" height="4000px" viewBox="-1999.5 -1231.5 4000 4000" enable-background="new -1999.5 -1231.5 4000 4000"
	 xml:space="preserve">
<rect x="-1999.5" y="-1231.5" fill="none" stroke="#000000" stroke-miterlimit="10" width="4000" height="4000"/>
<line fill="none" stroke="#FF0000" stroke-miterlimit="10" x1="327.5" y1="291.5" x2="897.845" y2="344.735"/>
<polygon fill="none" stroke="#0000FF" points="-1964.816,1909.693 -1835.289,1887.156 -1773.793,1846.658 -1820.291,1843.658 
	-1819.804,1810.014 -1737.795,1702.664 -1685.297,1723.664 -1622.301,1794.16 -1575.803,1758.162 -1496.576,1766.084 
	-1455.809,1789.66 -1425.811,1833.158 -1433.31,1914.154 -1362.812,1924.654 -1301.316,1899.154 -1316.315,1851.158 
	-1305.815,1798.66 -1130.324,1797.162 -1102.158,1765.893 -1094.326,1680.166 -987.832,1765.662 -948.834,1765.662 
	-927.834,1606.67 -1004.332,1479.178 -945.834,1360.684 -1017.83,1306.686 -1014.83,1252.688 -978.832,1218.189 -932.334,1206.191 
	-875.338,1240.689 -838.121,1311.275 -896.336,1390.682 -840.392,1424.85 -816.841,1455.178 -807.841,1515.176 -824.341,1545.174 
	-840.841,1737.164 -825.841,1768.662 -785.377,1764.445 -671.349,1809.16 -653.35,1782.16 -524.355,1753.662 -518.356,1774.662 
	-477.858,1771.662 -440.36,1753.662 -486.857,1632.168 -431.36,1668.166 -387.862,1666.666 -368.363,1615.668 -372.863,1531.674 
	-393.862,1508.889 -333.537,1378.85 -288.363,1396.918 -260.369,1449.178 -204.871,1447.678 -212.371,1363.682 -182.373,1354.682 
	-116.375,1392.18 -113.377,1440.178 -134.375,1446.178 -116.537,1549.361 -164.373,1597.668 -171.873,1626.168 -161.373,1659.166 
	-125.375,1660.666 -111.877,1602.168 -47.379,1656.166 -3.882,1948.652 48.615,1989.15 20.929,2022.658 24.616,2128.645 
	45.616,2170.643 82.571,2147.975 207.607,2139.143 230.474,2111.738 281.104,2119.645 321.602,2086.646 289.354,2054.398 
	306.603,2037.15 308.103,2002.65 339.601,2010.15 312.603,1900.656 341.732,1783.746 390.599,1738.664 404.826,1690.49 
	440.097,1717.664 458.343,1756.934 471.595,1768.662 493.281,1756.867 513.593,1729.664 508.361,1716.977 503.632,1715.119 
	500.276,1703.893 490.915,1697.119 479.885,1701.119 467.095,1684.666 638.087,1626.168 662.085,1711.664 705.583,1731.164 
	777.581,1729.664 846.576,1693.666 851.284,1768.662 981.292,1831.793 1035.568,1912.451 1075.016,1912.451 1097.38,1859.723 
	1073.066,1813.658 1086.565,1774.66 1124.063,1821.158 1134.563,1792.66 1118.063,1744.662 1138.783,1734.635 1176.561,1693.664 
	1191.561,1650.166 1182.41,1629.596 1183.552,1620.391 1175.919,1615 1164.489,1618.258 1154.062,1630.668 1121.063,1594.67 
	1148.062,1554.172 1172.062,1591.67 1178.63,1594.102 1180.487,1585.877 1247.058,1512.174 1224.56,1477.85 1241.809,1359.932 
	1260.558,1341.182 1259.058,1312.684 1238.059,1281.186 1267.62,1261.025 1269.12,1255.59 1265.264,1250.531 1232.81,1239.938 
	1247.059,1225.688 1196.062,1110.193 1236.913,1105.248 1239.155,1101.193 1316.055,1080.195 1327.104,1056.746 1303.697,1039.629 
	1283.057,1039.697 1248.559,1009.699 1263.946,1000.863 1274.058,981.199 1338.554,969.201 1338.554,997.699 1374.501,1035.438 
	1477.779,988.037 1521.544,1024.697 1523.044,985.699 1541.044,943.701 1563.544,931.703 1567.433,918.799 1565.044,906.203 
	1523.044,868.705 1527.46,855.527 1548.544,840.207 1581.933,852.781 1590.741,864.08 1614.653,874.592 1655.038,756.211 
	1669.889,748.861 1687.124,725.525 1694.735,681.914 1670.062,649.717 1670.038,586.721 1730.034,532.723 1710.535,426.229 
	1688.036,402.229 1651.288,398.48 1632.54,379.731 1599.562,396.229 1583.042,381.231 1578.263,414.055 1548.544,409.729 
	1568.521,451.25 1563.544,613.719 1530.544,684.215 1377.552,774.211 1281.557,670.717 1224.56,714.213 1157.062,631.719 
	974.201,527.021 915.575,541.723 885.576,489.225 776.083,462.227 726.021,502.201 701.085,471.227 653.087,456.227 
	570.591,507.225 387.602,483.225 353.104,453.227 337.033,456.852 313.81,444.723 155.113,462.227 105.615,447.227 69.617,414.229 
	21.621,453.227 -155.371,439.727 -228.867,390.229 -320.363,423.229 -336.862,493.725 -312.863,511.723 -306.863,559.721 
	-337.834,583.51 -362.36,676.715 -411.858,676.715 -432.857,729.211 -569.351,832.705 -630.848,804.207 -674.346,817.707 
	-704.344,888.203 -866.336,904.703 -912.832,891.203 -927.884,868.193 -965.33,844.705 -981.83,817.707 -1004.328,804.207 
	-1014.828,837.205 -1040.326,844.705 -1059.632,870.178 -1086.824,832.705 -1097.266,871.783 -1147.856,899.822 -1143.821,916.701 
	-1161.82,967.699 -1194.818,963.199 -1242.445,837.207 -1212.818,787.707 -1260.815,759.211 -1281.814,643.717 -1190.319,655.717 
	-1067.326,613.719 -1004.328,630.219 -982.066,669.492 -882.834,700.713 -740.343,690.213 -743.236,670.344 -696.846,615.219 
	-663.847,627.217 -621.48,625.637 -581.351,589.719 -575.902,571.619 -569.108,565.234 -551.352,529.723 -512.354,555.221 
	-504.373,549.404 -489.223,512.857 -479.147,506.76 -479.832,501.387 -455.562,445.971 -458.356,385.166 -478.28,383.667 
	-489.843,387.123 -593.554,375.689 -618.179,330.713 -626.744,326.837 -635.349,357.231 -666.847,385.729 -783.625,371.947 
	-794.873,375.169 -812.339,373.728 -854.336,345.231 -974.332,382.728 -1100.324,370.73 -1104.824,348.231 -1122.824,330.232 
	-1155.821,327.232 -1197.819,268.734 -1245.817,322.732 -1269.815,312.233 -1301.314,363.23 -1332.812,348.231 -1353.812,325.732 
	-1340.312,261.234 -1296.814,217.738 -1338.812,177.24 -1301.314,127.742 -1253.316,109.743 -1203.819,46.747 -1151.321,87.245 
	-1158.821,114.243 -1119.824,153.24 -1080.826,162.24 -1010.33,60.245 -941.283,72.8 -929.332,27.247 -706.39,134.731 
	-656.348,208.738 -624.849,226.738 -606.85,160.74 -563.352,201.238 -563.103,139.492 -546.548,148.875 -536.086,148.228 
	-527.354,154.74 -424.703,88.745 -422.358,75.245 -497.354,39.247 -479.355,10.748 -405.859,-0.252 -392.36,38.746 -345.793,32.634 
	-200.242,-69.061 -148.779,-40.58 -138.873,-65.749 -71.377,-70.249 -42.892,-118.89 -216.992,-295.292 -218.67,-301.575 
	-242.016,-307.19 -242.899,-336.844 -246.822,-344 -296.365,-320.736 -341.363,-343.235 -341.312,-365.733 -359.362,-385.686 
	-443.357,-397.233 -475.606,-543.475 -533.422,-479.489 -575.352,-478.229 -579.972,-512.379 -603.86,-544.32 -644.348,-535.225 
	-669.847,-569.725 -660.604,-595.89 -639.412,-619.625 -617.35,-629.72 -617.35,-649.22 -716.137,-772.214 -779.341,-788.713 
	-813.839,-826.644 -1017.828,-808.211 -1041.828,-845.71 -1050.826,-893.708 -1073.326,-881.709 -1112.324,-878.709 
	-1116.817,-846.308 -1143.873,-846.621 -1143.992,-846.4 -1145.428,-846.407 -1160.321,-815.711 -1179.049,-838.97 
	-1179.701,-838.891 -1181.226,-840.713 -1267.961,-829.822 -1332.606,-731.921 -1449.192,-716.057 -1476.6,-733.421 
	-1476.6,-790.418 -1493.72,-827.827 -1505.72,-797.828 -1538.718,-794.83 -1561.619,-748.782 -1592.715,-757.331 
	-1599.845,-822.975 -1599.984,-822.152 -1599.845,-822.975 -1633.343,-998.405 -1577.545,-954.616 -1577.369,-955.655 
	-1577.545,-954.616 -1565.33,-945.325 -1557.658,-951.193 -1560.832,-963.47 -1555.951,-983.146 -1567.842,-1011.902 
	-1560.08,-1054.048 -1526.922,-1053.833 -1497.719,-1072.886 -1503.312,-1123.729 -1475.972,-1093.379 -1454.381,-1086.159 
	-1451.973,-1076.713 -1414.966,-1072.977 -1402.164,-1013.393 -1368.34,-993.404 -1336.052,-991.867 -1298.771,-921.715 
	-1203.979,-956.116 -1245.752,-1018.503 -1210.524,-1036.664 -1197.313,-1064.391 -1161.556,-1098.763 -1036.556,-1098.763 
	-983.463,-1016.729 -952.564,-1029.97 -950.808,-1029.832 -918.887,-965.99 -869.687,-1025.955 -857.775,-1089.375 
	-782.662,-1078.426 -753.287,-914.629 -697.932,-867.273 -611.972,-885.379 -570.568,-989.75 -539.273,-992.016 -505.295,-1018.266 
	-469.933,-978.291 -505.295,-870.665 -443.697,-852.293 -388.564,-774.552 -357.693,-778.413 -350.469,-753.35 -319.091,-767.233 
	-311.567,-651.874 -263.905,-676.936 -278.342,-749.557 -243.121,-800.427 -239.877,-797.794 -236.94,-792.212 -231.123,-790.691 
	-225.468,-786.1 -189.112,-811.692 -162.43,-738.437 -117.998,-782.869 -17.586,-735.937 4.787,-699.198 83.574,-684.625 
	63.587,-636.96 88.187,-616.974 -3.972,-593.379 -67.972,-525.379 -71.972,-437.379 -123.094,-444.444 -141.972,-377.379 
	-90.357,-340.085 -5.137,-402.835 34.375,-357.133 32.836,-317.159 116.138,-303.995 211.826,-174.835 174.288,-86.53 
	189.839,-62.012 194.275,1.107 114.325,-1.967 105.1,34.933 -110.152,88.747 -163.972,63.021 -231.328,83.899 -275.972,145.451 
	-239.304,238.265 -273.129,281.906 -193.358,285.216 -165.502,258.252 -120.914,254.797 -93.239,167.159 -68.64,237.884 
	-35.66,266.406 -85.629,316.375 -4.063,316.297 22.074,150.247 83.685,242.007 171.802,232.45 208.112,245.572 243.167,224.416 
	271.15,280.935 279.878,275.997 292.676,240.959 320.46,298.866 328.04,303.999 333.866,296.757 352.452,211.708 464.878,231.734 
	551.569,61.351 518.69,1.107 700.651,-239.255 718.567,-306.395 835.419,-271.032 959.958,-312.545 1070.658,-200.308 
	1149.071,-189.544 1098.335,-117.282 1132.159,-92.681 1076.809,-77.307 1122.934,-40.405 1064.507,53.383 1130.622,51.845 
	1130.622,154.888 1093.574,214.246 1127.544,253.261 966.96,377.116 1032.219,402.4 1113.708,390.002 1170.595,413.162 
	1264.487,392.781 1296.671,363.961 1328.106,356.958 1431.973,285.549 1431.884,231.824 1481.173,242.499 1471.948,168.698 
	1501.427,161.199 1526.242,128.997 1665.675,62.609 1717.951,105.66 1730.251,170.234 1780.989,194.834 1810.062,233.273 
	1846.513,233.273 1830.188,320.913 1933.202,437.764 1907.064,519.25 1959.816,874.455 1928.847,905.424 1927.052,951.291 
	1814.814,1034.318 1787.139,1086.594 1754.851,1066.605 1736.4,1137.332 1676.054,1099.764 1597.529,1145.02 1584.187,1192.684 
	1537.216,1181.471 1484.445,1226.236 1485.786,1303.383 1437.009,1402.975 1376.624,1458.672 1390.441,1565.043 1428.898,1629.336 
	1411.986,1684.688 1368.936,1723.123 1335.11,1735.426 1361.249,1778.475 1302.908,1807.773 1316.491,1832.066 1290.522,1856.889 
	1304.359,1941.451 1182.645,2095.635 1141.384,2104.43 1142.921,2178.23 1101.409,2268.943 1065.931,2258.432 1003.007,2193.605 
	952.27,2228.967 963.032,2342.744 749.317,2318.145 696.853,2282.408 649.378,2319.682 577.116,2281.793 555.591,2232.041 
	520.228,2250.492 478.714,2216.666 386.464,2298.156 189.663,2281.244 31.299,2359.656 -41.838,2272.627 -89.338,2323.582 
	-120.916,2323.582 -262.113,2481.373 -526.819,2464.207 -522.207,2382.721 -559.107,2376.57 -572.748,2268.666 -637.521,2198.219 
	-943.486,2102.893 -1001.912,2118.268 -1044.963,2027.555 -1092.625,2055.23 -1177.188,1995.268 -1329.259,2080.236 
	-1501.604,2065.994 -1543.117,2149.02 -1586.168,2155.168 -1626.144,2132.107 -1619.994,2102.895 -1627.682,2050.619 
	-1676.882,2029.094 -1689.182,1978.355 -1796.4,2039.705 -1838.32,2015.256 -1964.816,2042.932 -1964.816,1909.693 "/>
</svg>
