<?xml version="1.0" encoding="utf-8"?>
<!-- Generator: Adobe Illustrator 15.0.2, SVG Export Plug-In . SVG Version: 6.00 Build 0)  -->
<!DOCTYPE svg PUBLIC "-//W3C//DTD SVG 1.1//EN" "http://www.w3.org/Graphics/SVG/1.1/DTD/svg11.dtd">
<svg version="1.1" id="Calque_1" xmlns="http://www.w3.org/2000/svg" xmlns:xlink="http://www.w3.org/1999/xlink" x="0px" y="0px"
	 width="4000px" height="4000px" viewBox="0 0 4000 4000" enable-background="new 0 0 4000 4000" xml:space="preserve">
<image overflow="visible" width="4096" height="4096" xlink:href="../../../../Dropbox/plouf/_Graphisme/Decors Final/Decors2.png"  transform="matrix(0.9999 0 0 0.9999 0 12.2441)">
</image>
<rect fill="none" stroke="#000000" stroke-miterlimit="10" width="4000" height="4000"/>
<line fill="none" stroke="#FF0000" stroke-miterlimit="10" x1="2518.758" y1="3357.773" x2="2926.676" y2="3328.596"/>
<polygon fill="none" stroke="#00FF00" points="256.145,508.17 295.149,523.171 358.155,442.164 487.168,460.165 487.168,523.171 
	514.171,553.175 646.185,514.171 703.19,424.162 841.204,424.162 841.204,373.157 913.211,373.157 955.215,448.164 
	1156.235,436.163 1348.254,619.181 1294.249,667.186 1321.252,718.191 1372.257,733.192 1402.26,784.198 1498.27,730.192 
	1516.271,850.204 1606.28,877.207 1621.282,925.212 1861.306,1063.226 1918.312,1147.234 1897.311,1189.238 1744.294,1219.241 
	1576.277,1297.249 1552.275,1252.245 1477.268,1297.249 1537.273,1336.253 1339.254,1489.268 1246.244,1393.259 1033.223,1300.249 
	1006.22,1330.252 946.214,1324.252 883.208,1417.261 799.2,1378.257 805.2,1327.252 754.195,1318.251 631.183,1459.265 
	613.181,1597.279 664.186,1630.282 772.197,1537.273 880.208,1630.282 1009.221,1647.95 1048.225,1594.279 1135.233,1600.279 
	1162.236,1630.282 1498.27,1647.95 1510.271,1719.664 1318.251,1894.309 1063.225,1960.314 694.188,1921.312 778.197,2173.337 
	1267.246,2152.334 1609.28,1873.307 1657.285,1699.289 2308.35,1732.292 3079.428,1867.306 3364.456,2000.75 3511.471,1939.312 
	3526.473,1660.285 3673.487,1681.287 3580.479,2137.333 3343.454,2305.35 3232.443,2278.347 3184.438,2806.4 3022.422,3178.438 
	2593.379,2899.409 2371.357,2971.416 2284.35,3220.441 2278.346,3352.458 1999.75,3412.464 1840.302,2668.39 1573.275,2686.393 
	1594.277,2887.411 1279.5,3079.5 1139.5,3047.5 1123.5,3012.5 1135.395,2947.505 1148.5,2901.5 1149.5,2826.5 1155.5,2782.5 
	1125.5,2589.5 1099.804,2538.557 1096.229,2494.372 956.5,2488.5 947.5,2586.5 961.5,2754.5 1014.424,2884.514 1013.424,2950.514 
	1016.5,3000.5 1016.5,3040.5 553.173,3190.441 235.141,2983.421 142.132,3073.43 160.133,3292.452 412.159,3412.464 
	793.197,3318.449 1336.249,3528.471 1441.26,3718.494 1907.811,3568.479 2437.357,3493.471 3007.414,3577.479 3403.454,2914.413 
	3340.447,2725.395 3649.479,2380.359 3730.486,2374.359 3919.504,2116.333 3853.498,1647.95 3637.477,1318.253 3448.457,1429.264 
	3208.434,1660.287 2932.406,1647.95 3100.423,1087.23 2689.381,973.219 2431.355,1492.271 1681.28,1537.275 1726.285,1357.257 
	2167.337,1252.247 1849.298,850.207 2030.818,631.185 1465.259,400.162 1498.263,274.149 1402.253,262.148 1360.249,355.157 
	934.206,166.138 352.148,151.137 202.132,328.154 "/>
<polygon fill="none" stroke="#0000FF" points="1366.316,3444.212 793.215,3222.568 413.816,3368.95 198.113,3266.235 
	183.548,3089.014 240.044,3034.34 548.259,3234.971 1004.305,3064.757 1100.604,3044.357 1280.61,3095.229 1636.895,2910.362 
	1617.371,2723.51 1808.445,2710.628 1969.027,3459.998 2316.904,3385.069 2324.043,3228.105 2402.572,3003.344 2587.568,2943.345 
	3040.229,3237.732 3223.688,2816.451 3268.078,2328.182 3351.714,2348.523 3616.512,2160.821 3721.163,1647.692 3488.876,1614.508 
	3472.877,1912.089 3365.375,1957.014 3091.568,1828.823 2312.829,1692.468 1627.26,1657.716 1574.112,1850.374 1252.255,2112.941 
	806.608,2132.081 751.787,1967.622 1066.23,2000.854 1337.848,1930.555 1553.323,1734.577 1532.422,1609.689 1180.884,1591.208 
	1154.136,1561.487 1028.885,1552.85 990.934,1605.073 897.35,1592.257 772.197,1484.487 660.775,1580.432 656.111,1577.414 
	669.281,1476.439 759.547,1372.964 756.092,1402.343 897.235,1467.875 965.958,1366.426 1022.398,1372.069 1043.656,1348.451 
	1223.007,1426.759 1335.411,1542.787 1606.336,1333.438 1600.913,1329.911 1756.74,1257.562 1924.296,1224.708 1964.568,1144.164 
	1889.232,1033.142 1654.792,898.339 1638.122,844.999 1552.064,819.181 1529.221,666.888 1416.845,730.1 1398.716,699.28 
	1348.714,684.574 1344.292,676.221 1407.307,620.206 1171.23,395.197 977.862,406.741 936.656,333.157 801.204,333.157 
	801.204,384.162 681.177,384.162 620.435,480.069 527.168,507.625 527.168,425.359 340.779,399.352 286.281,469.42 246.684,337.453 
	370.274,191.618 925.24,205.921 1380.349,407.836 1426.564,305.498 1448.001,308.177 1417.683,423.936 1965.253,647.611 
	1797.832,849.621 2097.047,1227.864 1693.375,1323.975 1629.25,1580.47 2456.866,1530.812 2710.503,1020.588 3050.386,1114.862 
	2879.362,1685.62 3223.801,1701.014 3472.787,1461.363 3624.893,1372.033 3815.137,1662.389 3877.626,2105.812 3709.125,2335.832 
	3630.441,2341.66 3295.155,2716.01 3359.704,2909.654 2986.787,3534.006 2437.471,3453.057 1898.819,3529.354 1463.578,3669.301 "/>
</svg>
