<?xml version="1.0" encoding="utf-8"?>
<!-- Generator: Adobe Illustrator 15.0.2, SVG Export Plug-In . SVG Version: 6.00 Build 0)  -->
<!DOCTYPE svg PUBLIC "-//W3C//DTD SVG 1.1//EN" "http://www.w3.org/Graphics/SVG/1.1/DTD/svg11.dtd">
<svg version="1.1" id="Calque_1" xmlns="http://www.w3.org/2000/svg" xmlns:xlink="http://www.w3.org/1999/xlink" x="0px" y="0px"
	 width="4000px" height="4000px" viewBox="0 0 4000 4000" enable-background="new 0 0 4000 4000" xml:space="preserve">
<rect fill="none" stroke="#000000" stroke-miterlimit="10" width="4000" height="4000"/>
<line fill="none" stroke="#FF0000" stroke-miterlimit="10" x1="2167.337" y1="1719.664" x2="2897.845" y2="1576.235"/>
<polygon fill="none" stroke="#0000FF" points="256.145,508.17 295.149,523.171 358.155,442.164 487.168,460.165 487.168,523.171 
	514.171,553.175 646.185,514.171 703.19,424.162 841.204,424.162 841.204,373.157 913.211,373.157 955.215,448.164 
	1156.235,436.163 1348.254,619.181 1294.249,667.186 1321.252,718.191 1372.257,733.192 1402.26,784.198 1498.27,730.192 
	1516.271,850.204 1606.28,877.207 1621.282,925.212 1861.306,1063.226 1918.312,1147.234 1897.311,1189.238 1744.294,1219.241 
	1576.277,1297.249 1552.275,1252.245 1477.268,1297.249 1537.273,1336.253 1339.254,1489.268 1246.244,1393.259 1033.223,1300.249 
	1006.22,1330.252 946.214,1324.252 883.208,1417.261 799.2,1378.257 805.2,1327.252 754.195,1318.251 631.183,1459.265 
	613.181,1597.279 664.186,1630.282 772.197,1537.273 880.208,1630.282 1009.221,1647.95 1048.225,1594.279 1135.233,1600.279 
	1162.236,1630.282 1498.27,1647.95 1510.271,1719.664 1318.251,1894.309 1063.225,1960.314 694.188,1921.312 778.197,2173.337 
	1267.246,2152.334 1609.28,1873.307 1657.285,1699.289 2308.35,1732.292 3079.428,1867.306 3364.456,2000.75 3511.471,1939.312 
	3526.473,1660.285 3673.487,1681.287 3580.479,2137.333 3343.454,2305.35 3232.443,2278.347 3184.438,2806.4 3022.422,3178.438 
	2593.379,2899.409 2371.357,2971.416 2284.35,3220.441 2278.346,3352.458 1999.75,3412.464 1840.302,2668.39 1573.275,2686.393 
	1594.277,2887.411 1276.246,3052.428 1138.232,3013.424 1096.229,2494.372 952.213,2479.371 1039.222,2950.418 979.216,3031.426 
	553.173,3190.441 235.141,2983.421 142.132,3073.43 160.133,3292.452 412.159,3412.464 793.197,3265.449 1336.249,3475.471 
	1441.26,3718.494 1907.811,3568.479 2437.357,3493.471 3007.414,3577.479 3403.454,2914.413 3340.447,2725.395 3649.479,2380.359 
	3730.486,2374.359 3919.504,2116.333 3853.498,1647.95 3637.477,1318.253 3448.457,1429.264 3208.434,1660.287 2932.406,1647.95 
	3100.423,1087.23 2689.381,973.219 2431.355,1492.271 1681.28,1537.275 1726.285,1357.257 2167.337,1252.247 1849.298,850.207 
	2030.818,631.185 1465.259,400.162 1498.263,274.149 1402.253,262.148 1360.249,355.157 934.206,166.138 352.148,151.137 
	202.132,328.154 "/>
<polygon fill="none" stroke="#00FF00" points="256.145,508.17 295.149,523.171 358.155,442.164 487.168,460.165 487.168,523.171 
	514.171,553.175 646.185,514.171 703.19,424.162 841.204,424.162 841.204,373.157 913.211,373.157 955.215,448.164 
	1156.235,436.163 1348.254,619.181 1294.249,667.186 1321.252,718.191 1372.257,733.192 1402.26,784.198 1498.27,730.192 
	1516.271,850.204 1606.28,877.207 1621.282,925.212 1861.306,1063.226 1918.312,1147.234 1897.311,1189.238 1744.294,1219.241 
	1576.277,1297.249 1552.275,1252.245 1477.268,1297.249 1537.273,1336.253 1339.254,1489.268 1246.244,1393.259 1033.223,1300.249 
	1006.22,1330.252 946.214,1324.252 883.208,1417.261 799.2,1378.257 805.2,1327.252 754.195,1318.251 631.183,1459.265 
	613.181,1597.279 664.186,1630.282 772.197,1537.273 880.208,1630.282 1009.221,1647.95 1048.225,1594.279 1135.233,1600.279 
	1162.236,1630.282 1498.27,1647.95 1510.271,1719.664 1318.251,1894.309 1063.225,1960.314 694.188,1921.312 778.197,2173.337 
	1267.246,2152.334 1609.28,1873.307 1657.285,1699.289 2308.35,1732.292 3079.428,1867.306 3364.456,2000.75 3511.471,1939.312 
	3526.473,1660.285 3673.487,1681.287 3580.479,2137.333 3343.454,2305.35 3232.443,2278.347 3184.438,2806.4 3022.422,3178.438 
	2593.379,2899.409 2371.357,2971.416 2284.35,3220.441 2278.346,3352.458 1999.75,3412.464 1840.302,2668.39 1573.275,2686.393 
	1594.277,2887.411 1276.246,3052.428 1138.232,3013.424 1096.229,2494.372 952.213,2479.371 1039.222,2950.418 979.216,3031.426 
	553.173,3190.441 235.141,2983.421 142.132,3073.43 160.133,3292.452 412.159,3412.464 793.197,3265.449 1336.249,3475.471 
	1441.26,3718.494 1907.811,3568.479 2437.357,3493.471 3007.414,3577.479 3403.454,2914.413 3340.447,2725.395 3649.479,2380.359 
	3730.486,2374.359 3919.504,2116.333 3853.498,1647.95 3637.477,1318.253 3448.457,1429.264 3208.434,1660.287 2932.406,1647.95 
	3100.423,1087.23 2689.381,973.219 2431.355,1492.271 1681.28,1537.275 1726.285,1357.257 2167.337,1252.247 1849.298,850.207 
	2030.818,631.185 1465.259,400.162 1498.263,274.149 1402.253,262.148 1360.249,355.157 934.206,166.138 352.148,151.137 
	202.132,328.154 "/>
<polygon fill="none" stroke="#0000FF" points="1351.283,3459.842 793.206,3244.009 412.988,3390.707 179.123,3279.344 
	162.84,3081.222 237.593,3008.881 550.716,3212.706 991.76,3048.092 1060.468,2955.335 976.738,2502.034 1077.633,2512.543 
	1119.418,3028.891 1278.428,3073.828 1615.585,2898.887 1595.323,2704.951 1824.374,2689.509 1984.389,3436.23 2297.625,3368.764 
	2304.196,3224.273 2386.965,2987.38 2590.474,2921.377 3031.325,3208.085 3204.062,2811.426 3250.261,2303.265 3347.584,2326.937 
	3598.495,2149.077 3697.325,1664.489 3507.675,1637.396 3492.174,1925.701 3364.915,1978.882 3085.498,1848.064 2310.59,1712.38 
	1642.272,1678.502 1591.696,1861.84 1259.75,2132.638 792.403,2152.709 722.987,1944.467 1064.728,1980.584 1328.049,1912.432 
	1531.797,1727.121 1515.346,1628.82 1171.56,1610.745 1144.685,1580.883 1038.555,1573.565 1000.078,1626.512 888.779,1611.27 
	772.197,1510.88 662.48,1605.357 634.646,1587.347 650.232,1467.852 761.842,1339.909 783.131,1343.667 777.646,1390.3 
	890.221,1442.568 956.086,1345.339 1014.31,1351.161 1038.439,1324.35 1234.625,1410.009 1337.333,1516.027 1571.805,1334.845 
	1515.01,1297.928 1544.527,1280.217 1567.535,1323.358 1750.517,1238.402 1910.803,1206.974 1941.44,1145.699 1875.269,1048.184 
	1638.037,911.775 1622.201,861.103 1534.168,834.692 1513.745,698.54 1409.553,757.149 1385.486,716.236 1334.983,701.383 
	1319.271,671.703 1377.78,619.693 1163.733,415.68 966.539,427.452 924.934,353.157 821.204,353.157 821.204,404.162 
	692.184,404.162 633.31,497.12 520.6,530.421 507.168,515.497 507.168,442.762 349.467,420.758 288.475,499.176 272.482,493.025 
	224.408,332.804 361.211,171.377 929.723,186.03 1370.299,381.497 1414.409,283.823 1473.132,291.163 1441.471,412.049 
	1998.036,639.397 1823.565,849.914 2132.191,1240.056 1709.831,1340.616 1655.265,1558.873 2444.111,1511.542 2699.941,996.903 
	3075.404,1101.046 2905.885,1666.785 3216.117,1680.65 3460.622,1445.313 3631.185,1345.143 3834.317,1655.17 3898.564,2111.073 
	3719.806,2355.096 3639.96,2361.01 3317.802,2720.702 3381.579,2912.033 2997.101,3555.742 2437.414,3473.264 1903.314,3548.915 
	1452.419,3693.897 "/>
</svg>
