<?xml version="1.0" encoding="utf-8"?>
<!-- Generator: Adobe Illustrator 15.0.2, SVG Export Plug-In . SVG Version: 6.00 Build 0)  -->
<!DOCTYPE svg PUBLIC "-//W3C//DTD SVG 1.1//EN" "http://www.w3.org/Graphics/SVG/1.1/DTD/svg11.dtd">
<svg version="1.1" id="Calque_1" xmlns="http://www.w3.org/2000/svg" xmlns:xlink="http://www.w3.org/1999/xlink" x="0px" y="0px"
	 width="4000px" height="4000px" viewBox="0 0 4000 4000" enable-background="new 0 0 4000 4000" xml:space="preserve">
<g>
	<g>
		<polygon fill="#2F154C" points="173.74,508.944 191.161,499.854 220.702,516.519 231.833,509.593 254.788,495.31 270.029,476.434 
			269,446 291.5,418.167 322.175,417.5 336.031,423.283 356.281,434.502 368,461 402.493,466.526 420,441 432.5,458.5 448,457 
			470.5,471.71 466.958,481.989 480.511,499.854 481,535 523.687,528.639 539,539 551.713,577.873 583.784,593.154 663.817,549.847 
			677.727,502.386 668.362,468.799 681.996,444.56 698.661,441.53 714.567,452.135 747.895,476.373 753.952,439.718 769.5,420.5 
			766,394.416 785.011,387 819.854,395.325 844.093,435.471 875.355,439.718 881.966,431.684 919.081,443.803 922,480 
			947.865,515.004 972.104,517.276 996.238,525 1003.889,492.451 997.1,456.679 1003.907,443.5 1016.036,440.772 1045.952,435.795 
			1056,422 1071,432.14 1080.42,449.104 1137.987,465.011 1187.844,502 1213,499 1242,554 1238.944,599.04 1098.228,683.177 
			912.209,737.182 767.741,693.343 665.51,758.859 466,769 391.006,809.189 328.438,746.184 138.132,695.178 151,588 		"/>
	</g>
</g>
<g>
	<g>
		<polygon fill="#2F154C" points="251.759,165.813 272.968,217.321 282.814,259.739 314.011,283.953 329.001,301.658 
			349.551,299.104 361.61,294.294 391.371,302.669 412.667,291.677 419.523,307.833 428.603,329.229 450.971,349.876 
			469.118,334.004 475.209,324.123 509.295,308.217 513.84,337.757 547.168,349.119 573.68,325.638 588.071,298.369 
			598.676,257.467 623.621,253.848 660.03,262.769 681.997,229.44 716.84,230.955 744.866,208.231 755.47,195.354 766.753,190.274 
			791.828,211.261 795.616,238.53 814.011,239.118 824.399,250.649 834.246,276.403 848.945,289.385 867.377,295.795 
			884.923,298.931 892.049,315.749 900.143,321.676 915.798,313.388 926.656,299.885 933.474,249.892 945.593,230.198 
			967.56,247.62 990.283,249.135 1008.046,238.609 1038.003,253.679 1041.791,281.705 1068.487,278.406 1082.35,283.764 
			1079.5,298.931 1093.487,303.5 1100,294.86 1114.043,305.5 1121.5,298.931 1121.447,282.25 1147.631,276.679 1175.586,255.301 
			1198.628,237.68 1224.084,262.272 1249.479,286.807 1257.667,323.366 1296.747,332.473 1307.66,363.511 1323.869,371 
			1328.111,387 1347.805,387 1355.596,371.489 1374.406,367.527 1383.5,353.322 1384.514,335.8 1372,318.083 1369.014,301.399 
			1389.119,266.179 1430.545,280.948 1438.938,312.675 1453.574,326.334 1435.671,359.724 1452.115,398.173 1422.794,408.959 
			1415.219,433.198 1395.5,435.811 1389.24,457.732 1405,476.168 1404.262,495.591 1413.979,508.626 1430.545,502.126 
			1452.335,530.153 1481.118,530.153 1502.327,552.876 1517.665,570.662 1543.23,558.179 1566.11,560.163 1604.166,536.212 
			1622.764,500.612 1604.166,464.876 1549.612,89.187 1371.38,56.114 1206.239,83.237 922.64,57.686 741.177,109.558 
			406.775,116.269 183.181,128.121 		"/>
	</g>
</g>
<g>
	<g>
		<path fill="#2F154C" d="M1265.291,853.502l30.249-54.451l-3.787-50.75l29.87-30.646l35.525-8.43l16.411-18.491l36.56,5.922
			l18.147,18.147l24.068,6.986l4.281,21.364l20.715-13.032l25.754,2.272l17.421-3.787l27.606-10.952l23.144,23.071l-6.14,35.945
			l8.494,29.479l18.094,23.78l25.756,10.78l8.646,34.436l34.498,17.999c0,0-1.387,57.905,3.608,62.899
			c4.995,4.995-6.608,127.591-6.608,127.591l-83.729-24.737l-120.602,6.343l-82.649,16.373l-128.253-53.274l-46.744-81.196
			L1265.291,853.502z"/>
	</g>
</g>
<g>
	<g>
		<polygon fill="#2F154C" points="2183.312,1002.88 2101.021,856.307 2022.91,890.615 1964.911,928.467 1958.301,997.5 
			1984.892,1013.494 1984.892,1036.528 2013.089,1035.637 1998.402,1052.249 2002.59,1073.135 2016.779,1090.24 2041.588,1086.635 
			2028.645,1120.848 2039.562,1155.33 2065.501,1174.049 2194.58,1190.129 2245.612,1041.266 		"/>
	</g>
</g>
<g>
	<g>
		<polygon fill="#2F154C" points="1692.105,486.665 1689.995,526.158 1710.492,536.371 1723.876,535.853 1749.103,552.662 
			1759.22,562.779 1764.873,583.212 1785.101,588.66 1804.601,582.66 1844.375,538.471 1890.096,500.164 1880.738,427.583 
			1763.482,383.146 1712.783,431.651 		"/>
	</g>
</g>
<g>
	<g>
		<polyline fill="#2F154C" points="1268.604,1392.271 1296.249,1455.875 1363.289,1508.561 1387.622,1514.114 1414.366,1501.873 
			1450.35,1495.5 1476.253,1470.476 1469.561,1446.575 1485.116,1425.62 1521.114,1413.62 1528.446,1434.779 1555.612,1452.617 
			1580.88,1436.301 1607.401,1430.499 1616.47,1417.575 1600.71,1403.144 1620.35,1372.937 1607.401,1339.291 1611.6,1275.495 
			1549.171,1227.13 1435.619,1209.629 1350.193,1205.292 1306.741,1266.745 1350.254,1370.247 1268.604,1392.271 		"/>
	</g>
</g>
<g>
	<g>
		<path fill="#2F154C" d="M779.38,1633.38l-6.88-29.833l8-20.156l14-12.893L825,1565l38,34l56-30l42.5-16.5l23,9.046l16,21.844
			l35.705,17.526c0,0,11.058,26.083,14.795,26.083c2.944,0,28.308-12.521,28.308-12.521L1127,1619l38-14l29,29l26.525,44.562
			l-12.164,67.908l-77.366-10.187l-61.613,64.85l-91.166,55.162L843,1835l-56.802-2.706l-69.007-72.008L731,1683L779.38,1633.38"/>
	</g>
</g>
<g>
	<g>
		<path fill="#2F154C" d="M2090.883,1774.033L2101,1705l18.748-15.467l28.331,17.669l12.245-21.635l28.143,0.509l30.994-20.074
			l34.013,6.8l37.995,34.4l-4.562,25.095l25.222,49.347L2385,1855c0,0,79.607-52.283,73.033-58.855
			c-3.033-3.033-10.366-35.885-10.366-35.885l4.429-32.809l6.053-37.918l34.352-3.966l35.144,12.076L2561,1691l-7.823-43.5
			l26.474-20.361l16.907-29.027l29.489-4.612l23.009,13.612l4.456-38.349l-7.456-39.647l35.987-23.899l43.791,14.617l25.29,38.445
			l25.876,12.835l20.5-12.835l29.492,10.126L2831,1597l11.557,37.361l-26.749,13.139l11.185,38.067l-17.666,23.76l33.23,24.443
			l21.563,44.76l25.262,121.976l-53.974,135.814l-156.016-27.003l-114.011,18.002l-174.018-6.001l-122.942-15.002l-159.086-15.001
			L2055,1871L2090.883,1774.033"/>
	</g>
</g>
<g>
	<g>
		<polygon fill="#2F154C" points="2751.399,821.199 2666.396,848.202 2559.38,884.206 2554.56,1012.284 2610.057,1119.636 
			2638.697,1134.954 2670.054,1115.136 2677.404,1151.362 2708.513,1160.604 2724.052,1182.633 2756.001,1174.049 2760.5,1144.541 
			2775.447,1134.017 2779.549,1100.137 2798.5,1078.565 2824.547,1088.138 2840.491,1124.173 2861.734,1136.385 2875.325,1161.084 
			2874.301,1183.429 2896.123,1201.007 2929.541,1187.133 2955.479,1174.049 2964.765,1146.73 2980.539,1128.636 3019.537,1013.142 
			3011.984,931.77 2959.251,891.037 2844.203,829.995 		"/>
	</g>
</g>
<g>
	<g>
		<polyline fill="#2F154C" points="3071.697,1977.531 3108.032,1922.096 3145.53,1959.594 3180.029,1923.596 3219.027,1931.095 
			3232.526,1964.094 3261.316,1955.509 3283.321,1942.5 3312.022,1944.595 3338.5,1930.439 3364.52,1947.594 3385.519,1973.093 
			3354.87,1898.392 3351.021,1869.598 3377.176,1852.5 3400.518,1862.099 3399.879,1832.374 3418.517,1814.102 3441.417,1805.5 
			3457.514,1814.102 3502.512,1835.1 3525.478,1922.569 3525.478,1970.435 3490.999,2030.091 3460.357,2107.441 3392.49,2127.303 
			3313.522,2130.585 3264.079,2122.655 3204.618,2147.332 3122.361,2137.256 3090.349,2075.239 3073.534,1983.593 		"/>
	</g>
</g>
<g>
	<g>
		<path fill="#2F154C" d="M3545.615,1232.239l-113.147,24.002l-32.589,127.381l27.638,103.495h34.499l25.498,10.5l1.965,15.885
			l-5.979,24.997l23.201,12.801l14.562,14.562l29.43,2.9l10.318-20.149l-9.327-25.928c0,0,16.826-23.569,16.826-23.569l7.469-20.618
			l19.53-7.881l32.991,21.881l-1.493,27.615l-9.507,25.668l9.507,22.33l14.873,25.498l23.62-11.683l14.645,7.304l32.355,1.959
			l11.455-39.08c0,0,48.596-67.373,48.596-63.56c0,1.65,11.178-70.978,11.178-70.978l-34.363-124.257l-123.858-1.19
			L3545.615,1232.239z"/>
	</g>
</g>
<g>
	<g>
		<path fill="#2F154C" d="M3703.995,2372.954l-30.497-59.217c0,0,1.5-37.233,1.5-34.652c0,3.426,23.62,0,23.62,0l15.378,29.998
			l20.999-50.997l-9.951-39.572l16.456-25.473l-24.27-15.449l-9.233-29.001l17.047-14.466l2.451-36.531l25.734-7.029l14.764-25.969
			l-12.759-41.926l-2.005-19.42l14.1-13.5l12.664,20.85l18.847,46.319l-8.348,33.176l18.008,45.188l-3.009,44.807l43.498,62.997
			l12.171,69.612l-2.234,83.242l-36.418,60.422l-73.779-3.001L3703.995,2372.954"/>
	</g>
</g>
<g>
	<g>
		<polygon fill="#2F154C" points="2458.246,3770.492 2340.356,3686.484 2332.726,3561.597 2299.5,3514.482 2300.5,3467 
			2281.125,3442.125 2311.971,3411.934 2353,3454.625 2356.728,3418.196 2394.874,3403.265 2421.495,3411.934 2440.5,3382.75 
			2478.874,3421.125 2507.688,3449.938 2517.738,3395.5 2545.5,3362.5 2578.749,3348.5 2628.358,3378.511 2613.465,3411.934 
			2634.25,3423.375 2637.773,3474.047 2689.5,3503.504 2697.5,3563.129 2735.086,3716.518 2799.875,3629.479 2799.875,3557.75 
			2790.558,3524.72 2818.625,3504.625 2808.428,3476.502 2818.625,3457.75 2863.986,3447.722 2896.75,3460.875 2921.75,3435.875 
			2944.703,3453.5 2934.5,3489.092 2977.5,3510.092 2994.422,3557.408 2978.127,3657.75 2926.314,3685.586 2940.5,3782.75 
			2889.442,3788.68 2849.295,3822.388 2735.414,3835.615 2622.853,3884.504 2520.552,3831.529 		"/>
	</g>
</g>
<g>
	<g>
		<polygon fill="#2F154C" points="1242.776,3689.528 1206.382,3635.618 1231.883,3549.828 1261.217,3524.978 1271.451,3445.25 
			1286.809,3414.245 1331.125,3417.125 1367.625,3447.36 1406.125,3448.375 1419.323,3481.418 1414.485,3526.13 1451.5,3543.396 
			1478.963,3576.588 1528.163,3543.396 1530.686,3478.309 1576.5,3466.415 1612.375,3435.875 1658.815,3433.544 1693.625,3457.75 
			1719.241,3443.126 1730.649,3410.595 1766.109,3385.266 1798.5,3399.222 1803.26,3431.553 1857.723,3460.281 1880.636,3504.136 
			1914.224,3516.137 1946.303,3514.486 1951.521,3543.396 1996.013,3615.168 2043.324,3685.875 2049.234,3833.588 1970.062,3912.76 
			1809.25,3904.625 1617.38,3833.496 1465.5,3917.125 1421.842,3889.986 1290.249,3884.502 1234.25,3773.375 		"/>
	</g>
</g>
<g>
	<g>
		<polyline fill="#2F154C" points="826.786,2205.27 849.966,2124.478 844.195,2088.87 872.361,2084.494 870.312,2058.889 
			892.448,2044.074 919.475,2052.743 949.875,2051.5 960.444,2031.747 994.244,2018.615 1014.728,2044.074 1017.085,2074.252 
			1049.04,2103.442 1096.75,2179.625 1133.095,2128.239 1163.463,2125.705 1177.266,2104.797 1205.994,2092.688 1218.625,2076.5 
			1275.246,2024.312 1300.774,2036.84 1320.971,2057.353 1356.125,2064 1389.082,2077.324 1406.968,2114.322 1443.319,2198.768 
			1413.26,2276.338 1305.249,2336.345 1153,2340.424 1028.719,2345.848 897.208,2375.349 838.618,2323.905 826.786,2205.27 		"/>
	</g>
</g>
<g>
	<g>
		<polygon fill="#2F154C" points="3384.222,2825.399 3295.234,2755.053 3246.024,2706.557 3262.523,2694.557 3247.715,2658.897 
			3246.024,2618.061 3263.234,2605.5 3279.022,2612.061 3302.254,2629.826 3330.021,2651.059 3291.834,2595.5 3291.834,2554.763 
			3306.614,2524.937 3273.745,2488.542 3291.022,2436.569 3325.181,2432.826 3360.035,2394.572 3392.134,2402.296 
			3414.017,2394.572 3465.472,2438.069 3501.287,2574.287 3546.479,2648.382 3515.553,2725.155 3501.84,2800.38 		"/>
	</g>
</g>
<g>
	<g>
		<polygon fill="#2F154C" points="2809.938,2928.877 2702.137,2922.716 2638.4,2855.403 2520.375,2795.397 2454.368,2843.641 
			2402.65,2916.121 2415.364,3026.33 2445,3106.729 2439.5,3139.194 2477.5,3161.8 2504.504,3161.497 2517,3183 2541.283,3174.588 
			2532.706,3133.941 2552.795,3120.165 2570.714,3142.671 2567.528,3174.588 2589,3199 2613.465,3199.212 2633.453,3170.547 
			2629,3127 2678.781,3151.285 2683,3181 2720.585,3204.521 2752.473,3234.5 2803.93,3249.502 2833,3227 2895.412,3151.369 
			2897.91,3055.22 2921,2987 		"/>
	</g>
</g>
<g>
	<g>
		<polygon fill="#2F154C" points="798.2,3788.49 645.185,3689.479 525.172,3674.479 352.209,3671.479 246.032,3581.469 
			207.851,3423.164 207.919,3351.225 237.707,3286.496 246.68,3244.989 287.883,3227.434 318.468,3244.989 318.468,3269.986 
			355.032,3283.914 366.924,3257.424 390.577,3253.198 403.032,3242.436 434.705,3252.51 453.165,3269.438 452.862,3295.574 
			475.032,3311.914 501.43,3303 536.822,3312.411 573.032,3305.914 598.717,3273.632 618.922,3264.592 643.514,3253.79 
			659.653,3227.914 695.811,3205.378 722.614,3221.115 755.032,3207.914 778.189,3227.163 788.745,3252.51 823.032,3290.457 
			866.969,3353.209 882.208,3482.229 822.202,3572.807 897.209,3675.914 		"/>
	</g>
</g>
</svg>
