<?xml version="1.0" encoding="utf-8"?>
<!-- Generator: Adobe Illustrator 15.0.2, SVG Export Plug-In . SVG Version: 6.00 Build 0)  -->
<!DOCTYPE svg PUBLIC "-//W3C//DTD SVG 1.1//EN" "http://www.w3.org/Graphics/SVG/1.1/DTD/svg11.dtd">
<svg version="1.1" id="Calque_1" xmlns="http://www.w3.org/2000/svg" xmlns:xlink="http://www.w3.org/1999/xlink" x="0px" y="0px"
	 width="1024px" height="768px" viewBox="0 0 1024 768" enable-background="new 0 0 1024 768" xml:space="preserve">
<g>
	<g>
		<rect x="0.5" y="0.5" fill="none" stroke="#000000" stroke-miterlimit="10" width="1024" height="768"/>
		<line fill="none" stroke="#FF0000" stroke-miterlimit="10" x1="42.507" y1="248.776" x2="991.888" y2="334.947"/>
	</g>
	<path fill="none" stroke="#0000FF" stroke-miterlimit="10" d="M839.146,251.987l21.876-3.345l59.309,172.247l104.17-10.489V279.4
		l-29.569,2.127l-34.702-42.553L879.477,115.57l-75.537,12.765l-91.579,47.874l40.518,118.084l-45.067,80.407l-22.266,8.336
		l-73.761-12.233l-12.323-16.442l28.766-71.771L476.91,154.924l-101.945-10.025l-15.527-21.4l24.078-33.001l45.759-17.599
		l38.328,14.399l85.51,35.2l79.812-12.801l11.466-63.213L614.397,2.5h-352.02l-17.103,37.197l29.929,68.601l-9.976,71.9
		l-61.833,51.442l-78.411-28.737l-40.824-53.193L2.5,144.229v144.436L32.854,346.5l-11.368,57.6l39.951,125.244l63.286,15.164
		l108.359,10.929l20.321,97.873l150.068,59.59l109.029-9.601l17.815-33.6l-49.201-81.966l-30.522-72.722l-88.746-53.683
		l-74.64-27.235l-137.452-31.911l4.669-21.218l75.614-19.149l103.053-9.011l5.949-65.335l20.75-16.58l57.478,2.128l53.277,82.978
		l7.458,86.731l62.867,45.185l179.992,9.189l16.093,7.585c0,0,21.263,51.013,23.394,54.203c0.506,0.759,1.127,16.33-8.003,21.338
		c-29.353,16.101-93.203,47.045-93.203,47.045l-11.72,57.948l18.974,83.28h130.208l-9.103-68.1v-25.256l72.5-48.001l76.593,18.457
		l19.19,48.05l19.929,46.425L1024.5,754.5v-160l-26.199-9.6l-27.603-46.701L942.06,523.5h-40.482l-0.127,0.414l-6.198-22.223
		l-89.885-71.186l-3.569-21.63l34.145-51.823L839.146,251.987z"/>
</g>
</svg>
