<?xml version="1.0" encoding="utf-8"?>
<!-- Generator: Adobe Illustrator 15.0.2, SVG Export Plug-In . SVG Version: 6.00 Build 0)  -->
<!DOCTYPE svg PUBLIC "-//W3C//DTD SVG 1.1//EN" "http://www.w3.org/Graphics/SVG/1.1/DTD/svg11.dtd">
<svg version="1.1" id="Calque_1" xmlns="http://www.w3.org/2000/svg" xmlns:xlink="http://www.w3.org/1999/xlink" x="0px" y="0px"
	 width="1024px" height="768px" viewBox="0 0 1024 768" enable-background="new 0 0 1024 768" xml:space="preserve">
<g>
	<g>
		<rect x="0.5" y="0.5" fill="none" stroke="#000000" stroke-miterlimit="10" width="479" height="320"/>
		<path fill="none" stroke="#0000FF" stroke-miterlimit="10" d="M465.418,116.595l-16.358-17.73l-37.836-51.418l-35.366,5.319
			l-42.854,19.947l18.945,49.202l-23.424,38.169l-48.348-7.142l13.456-35.905l-70.782-53.193l-66.8-16.404L90.735,85.553L0,59.387
			l0.092,145.182l31.948,24.375l26.208-2.774l50.618,4.554l9.47,40.78l70.278,20.39L240,276.38l-29.455-62.5l-41.516-22.368
			l-34.916-11.348l-68.113-22.137l41.37-7.979l48.206-3.754l3.489-34.131l35.887,0.887l24.921,34.574l3.489,36.138l29.408,18.827
			l87.723,3.989c0,0,16.946,29.255,17.943,30.585c0.998,1.33-50.341,23.493-50.341,23.493l-5.482,24.145l7.875,35.7h60.908
			l-2.896-29.375v-10.523l61.508-36.348l-11.342-35.904l-47.809-33.688l19.957-26.596l6.49-40.78l33.22,67.376l48.976-4.371v-54.583
			L465.418,116.595z"/>
	</g>
	<line fill="none" stroke="#FF0000" stroke-miterlimit="10" x1="19.15" y1="103.948" x2="464.245" y2="139.853"/>
</g>
</svg>
